<?xml version="1.0" standalone="no"?>
<!DOCTYPE svg PUBLIC "-//W3C//DTD SVG 20010904//EN"
 "http://www.w3.org/TR/2001/REC-SVG-20010904/DTD/svg10.dtd">
<svg version="1.0" xmlns="http://www.w3.org/2000/svg"
 width="1024.000000pt" height="1024.000000pt" viewBox="0 0 1024.000000 1024.000000"
 preserveAspectRatio="xMidYMid meet">

<g transform="translate(0.000000,1024.000000) scale(0.100000,-0.100000)"
fill="#000000" stroke="none">
<path d="M5153 8083 c-7 -3 -13 -10 -13 -16 -1 -7 -21 -43 -45 -82 -25 -38
-56 -90 -70 -115 -14 -25 -42 -71 -63 -102 -20 -32 -70 -111 -111 -175 -41
-65 -84 -134 -96 -153 -12 -19 -48 -78 -79 -130 -32 -52 -81 -133 -110 -180
-139 -223 -324 -523 -369 -600 -27 -47 -57 -97 -66 -112 -8 -15 -12 -30 -7
-35 10 -10 1655 -17 1904 -8 104 4 182 11 182 17 0 12 -159 280 -379 638 -46
74 -103 169 -128 210 -56 93 -275 448 -318 515 -18 28 -70 111 -115 185 -82
136 -95 151 -117 143z"/>
<path d="M3747 5703 l-57 -4 -31 -52 c-34 -59 -101 -170 -241 -397 -52 -85
-159 -260 -237 -388 -109 -178 -140 -237 -132 -245 9 -9 520 -13 2049 -15
1120 -2 2070 0 2110 3 39 4 72 11 72 17 0 5 -32 62 -72 126 -39 65 -120 198
-180 297 -59 99 -116 194 -127 210 -20 32 -77 126 -95 160 -47 85 -146 243
-167 266 l-26 28 -1404 -1 c-772 -1 -1430 -3 -1462 -5z"/>
<path d="M2628 3973 c-9 -2 -64 -86 -123 -186 -109 -185 -120 -202 -239 -384
-36 -57 -66 -105 -66 -107 0 -5 -97 -167 -213 -356 -25 -41 -43 -78 -39 -82 7
-7 2485 -12 4990 -9 1354 1 1422 2 1422 19 0 9 -16 42 -36 72 -39 60 -106 168
-218 353 -39 65 -83 137 -98 160 -57 90 -208 345 -270 457 -11 19 -26 42 -34
50 -13 13 -309 15 -2537 16 -1387 1 -2529 0 -2539 -3z"/>
<path d="M1528 2158 c-19 -29 -51 -82 -72 -118 -20 -36 -70 -119 -111 -185
-41 -66 -134 -218 -207 -338 -73 -119 -145 -236 -160 -260 -66 -103 -118 -202
-114 -214 4 -11 744 -13 4278 -13 2350 0 4283 3 4296 6 12 4 22 11 22 16 0 10
-122 212 -181 300 -22 31 -39 59 -39 61 0 2 -25 44 -55 93 -30 49 -75 125
-100 169 -58 100 -148 250 -162 267 -6 7 -20 29 -31 48 -11 19 -42 73 -69 120
l-49 85 -95 6 c-52 4 -1674 7 -3605 8 l-3511 1 -35 -52z"/>
</g>
</svg>
